<svg height="1024" preserveAspectRatio="none" viewBox="0 0 1024 1024" width="1024" xmlns="http://www.w3.org/2000/svg">
<!--    <path
        d="m969.6 351.25q-8.6-20.85-19.4-40.85-6.1-11.35-12.9-22.4-29.35-47.55-71.55-89.8-138.25-138.25-333.8-138.25-195.5 0-333.75 138.25-138.25 138.25-138.25 333.75 0 195.55 138.25 333.8 138.25 138.2 333.75 138.2 195.55 0 333.8-138.2 76.15-76.2 110.35-169.75 27.85-76.25 27.85-164.05 0-67.35-16.4-127.95-1.85-6.85-3.9-13.6-6.15-19.95-14.05-39.15z"
        fill-opacity=".098039"
        />-->
    <path
        d="m394.2 484.4 9.65-13.45-40.8-39.95zm504.95 299q1.85-2.7 3.75-5.4 15.35-22.3 27.9-45.85 8.80234375-16.93125 16.25-34.5l-279-279 227.2 370 .05.15q1.95-2.7 3.85-5.4m-271.9-294.05 18.6-33.35 10.5-17.7-141.55-141.55z"
        fill="context-fill"
        />
    <path
        d="m668.05 418.65-11.7 19.65-10.5 17.7 22.2 103.15-40.8-69.8-112.45-192.6-3.1-5.3-96.35 163.35 22.5 104.35-43.65-74.75-31.15-53.4-7-12-227.3 369.45q-43.3-59.5-66.3-129.4-2.85-8.65-5.45-17.4 31.3 114.2 121.25 204.15 84.8 84.75 191.1 117.55 54.55 16.8 114.75 19.95.2 0 .4 0 12.15.6 24.5.7 1.5 0 3 0 15.25 0 30.1-.8 3.5-.2 6.95-.45 30.05-2.15 58.7-7.7 11.8-2.3 23.4-5.15 120.6-30.05 214.65-124.1 27.45-27.45 49.45-57.15z"
        fill="transparent"
        />
    <path
        d="m948.15 325.4q-35.95-85.1-101.45-150.75-65.45-65.6-150.35-101.6-88-37.35-184.3-37.35-96.35 0-184.3 37.35-80.63476562 34.17128906-143.7 95-3.37539062 3.26777344-6.7 6.6-17.44199219 17.45546875-32.8 36.3-42.24375 51.86542969-68.65 114.25-37.15 88.15-37.15 184.65 0 44.45 8.05 87.2 2.4 13.6 5.65 27 2.1 8.85 4.55 17.6 2.6 8.75 5.45 17.4 23 69.9 66.3 129.4l227.3-369.45 7 12 40.8 39.95-9.65 13.45 43.65 74.75-22.5-104.35 96.35-163.35 3.1 5.3 141.55 141.55 11.7-19.65 279 279q8.0625-18.93007813 14.55-38.6 2.6-7.85 5-15.75 2.25-7.9 4.2-15.9 2.9-11.65 5.15-23.45 9.35-45.95 9.35-93.75 0-96.65-37.15-184.8m-302.3 130.6-18.6 33.35 40.8 69.8z"
        fill="context-fill"
        />
<!--     <path d="m953.15 684q7.75-19.95 13.45-40.7-2.4 7.9-5 15.75-6.4875 19.66992187-14.55 38.6-7.44765625 17.56875-16.25 34.5 9.11171875-16.72265625 16.6-34.15 3.01054688-6.9375 5.75-14z" fill="#72e79f" /> -->
    </svg>
